<?xml version="1.0" encoding="utf-8"?>
<!-- Generator: Adobe Illustrator 19.0.1, SVG Export Plug-In . SVG Version: 6.00 Build 0)  -->

<svg fill="#000" version="1.1" id="Слой_1" x="0px" y="0px" viewBox="0 0 19.8 19.8">
	<g>
		<path d="M17,6.2H3.2c-0.9,0-1.6,0.7-1.6,1.6v5.8c0,0.9,0.7,1.6,1.6,1.6h1.1v1.6c0,0.9,0.7,1.6,1.6,1.6h8.5c0.9,0,1.6-0.7,1.6-1.6
			v-1.6H17c0.9,0,1.6-0.7,1.6-1.6V7.8C18.6,6.9,17.9,6.2,17,6.2z M13.8,16.3H6.4v-3.7h7.4V16.3z M14.9,4.6H5.3V3
			c0-0.9,0.7-1.6,1.6-1.6h6.4c0.9,0,1.6,0.7,1.6,1.6V4.6z"/>
	</g>
</svg>
