<?xml version="1.0" encoding="utf-8"?>
<!-- Generator: Adobe Illustrator 19.0.1, SVG Export Plug-In . SVG Version: 6.00 Build 0)  -->
<svg version="1.1" id="Слой_1" xmlns="http://www.w3.org/2000/svg" xmlns:xlink="http://www.w3.org/1999/xlink" x="0px" y="0px"
	 viewBox="0 0 17 18.4" fill="#308fb8" xml:space="preserve">
<g id="Фигура_12_копия_2_2_">
	<g>
		<path d="M12.2,14.8H0.6v1h11.5C12.1,15.5,12.1,15.1,12.2,14.8z"/>
		<path d="M6.7,9H0.6v1h6.1C6.6,9.6,6.6,9.3,6.7,9z"/>
		<path d="M10.5,10h6.1V9h-6.1C10.5,9.3,10.5,9.6,10.5,10z"/>
		<path d="M4.8,2.6c0.1,0.3,0.1,0.7,0,1h11.7v-1H4.8z"/>
	</g>
</g>
<g>
	<path d="M8.6,12.1c-1.4,0-2.6-1.2-2.6-2.6s1.2-2.6,2.6-2.6s2.6,1.2,2.6,2.6S10,12.1,8.6,12.1z M8.6,7.8c-0.9,0-1.6,0.7-1.6,1.6
		s0.7,1.6,1.6,1.6s1.6-0.7,1.6-1.6S9.5,7.8,8.6,7.8z"/>
</g>
<g>
	<path d="M3,5.7c-1.4,0-2.6-1.2-2.6-2.6S1.6,0.5,3,0.5s2.6,1.2,2.6,2.6S4.5,5.7,3,5.7z M3,1.5c-0.9,0-1.6,0.7-1.6,1.6S2.1,4.7,3,4.7
		S4.7,4,4.7,3.1S3.9,1.5,3,1.5z"/>
</g>
<g>
	<path d="M14,17.9c-1.4,0-2.6-1.2-2.6-2.6s1.2-2.6,2.6-2.6s2.6,1.2,2.6,2.6S15.4,17.9,14,17.9z M14,13.7c-0.9,0-1.6,0.7-1.6,1.6
		s0.7,1.6,1.6,1.6s1.6-0.7,1.6-1.6S14.9,13.7,14,13.7z"/>
</g>
</svg>
