<?xml version="1.0" encoding="utf-8"?>
<!-- Generator: Adobe Illustrator 19.0.1, SVG Export Plug-In . SVG Version: 6.00 Build 0)  -->
<svg version="1.1" id="Слой_1" xmlns="http://www.w3.org/2000/svg" xmlns:xlink="http://www.w3.org/1999/xlink" x="0px" y="0px"
	 viewBox="0 0 36.9 45.4" style="enable-background:new 0 0 36.9 45.4;" xml:space="preserve">
<style type="text/css">
	.st0{fill-rule:evenodd;clip-rule:evenodd;fill:#3E86CE;}
</style>
<path class="st0" d="M36.2,18c0-9.8-8-17.8-17.8-17.8S0.6,8.1,0.6,18c0,3,0.7,5.8,2,8.2l0,0c0,0,0,0.1,0.1,0.1
	c0.6,1.2,1.4,2.3,2.3,3.3c4.8,5.8,11.6,9.4,13.2,15.7h0.5c1.6-6.4,8.4-9.9,13.2-15.7c0.9-1,1.7-2.1,2.3-3.3c0,0,0-0.1,0.1-0.1l0,0
	C35.5,23.7,36.2,20.9,36.2,18z M18.4,25.6c-4.4,0-7.9-3.5-7.9-7.9s3.5-7.9,7.9-7.9c4.4,0,7.9,3.5,7.9,7.9S22.8,25.6,18.4,25.6z"/>
</svg>
